<svg version="1.1" id="Layer_1" xmlns="http://www.w3.org/2000/svg" xmlns:xlink="http://www.w3.org/1999/xlink" x="0px" y="0px"
	 width="100%" viewBox="0 0 261 103" enable-background="new 0 0 261 103" xml:space="preserve">
<path fill="#000000" opacity="1.000000" stroke="none" 
	d="
M159.000000,104.000000 
	C106.000015,104.000000 53.500027,104.000000 1.000028,104.000000 
	C1.000019,69.666687 1.000019,35.333374 1.000009,1.000046 
	C87.999962,1.000031 174.999924,1.000031 261.999908,1.000015 
	C261.999939,35.333282 261.999939,69.666565 261.999969,103.999924 
	C227.833328,104.000000 193.666672,104.000000 159.000000,104.000000 
M37.004539,83.007858 
	C37.004539,83.007858 37.048599,83.061852 37.610275,82.798485 
	C37.678085,82.209908 37.745895,81.621338 38.072590,80.424438 
	C38.395691,79.646957 38.718792,78.869469 39.606216,77.816376 
	C40.082317,76.908112 40.558422,75.999847 41.631676,74.773048 
	C42.361820,73.179039 43.091969,71.585022 44.126148,69.363121 
	C45.341770,67.243797 46.557392,65.124466 48.096123,62.378296 
	C49.933792,60.206284 50.447918,58.046955 47.980751,55.164276 
	C46.801662,52.737007 45.489796,50.363949 44.471973,47.870842 
	C42.536404,43.129772 37.062191,38.550140 43.891396,32.962254 
	C44.633461,34.480507 45.208794,35.983269 46.049625,37.318890 
	C48.948124,41.922989 51.939316,46.468731 55.008469,51.749775 
	C56.060505,53.832054 57.112545,55.914337 58.057384,58.714806 
	C58.936687,60.217899 60.083710,61.633011 60.615276,63.250389 
	C61.087673,64.687721 60.877537,66.349373 60.484554,68.024826 
	C60.484554,68.024826 60.010029,68.172989 59.265881,68.019569 
	C58.509132,68.061157 57.752380,68.102745 56.256237,68.020523 
	C55.510994,68.073082 54.765755,68.125641 53.271641,68.037987 
	C51.470181,70.347847 49.668720,72.657700 47.251179,75.307968 
	C45.363552,79.181610 43.475929,83.055252 41.036972,88.060295 
	C52.075184,88.060295 62.029602,88.060295 72.226837,88.621994 
	C72.810509,88.771210 73.394180,88.920433 74.241219,89.649223 
	C75.132584,90.774582 76.023956,91.899940 77.021217,93.767387 
	C78.268265,98.698181 81.382515,100.599060 86.438545,100.065529 
	C89.734123,99.717758 93.096764,100.049805 96.426941,99.972748 
	C99.473457,99.902252 102.516716,99.691277 106.135063,99.514122 
	C104.803658,96.711662 103.910324,94.831314 102.734398,92.258522 
	C98.512634,84.495941 94.290863,76.733360 89.811005,68.321976 
	C89.130890,66.880638 88.450775,65.439301 87.689629,63.362320 
	C86.807220,62.206245 85.924820,61.050167 84.972916,59.249622 
	C84.582993,58.501091 84.193062,57.752560 83.730347,56.347462 
	C82.756462,54.898052 81.782578,53.448643 80.873962,51.481728 
	C80.591690,51.299591 80.309418,51.117455 79.951485,50.341854 
	C79.662636,49.883030 79.373787,49.424206 78.997162,48.282402 
	C78.345970,47.160053 77.694786,46.037704 76.710602,44.273781 
	C74.413361,40.183750 72.116119,36.093719 69.938896,31.277742 
	C68.538811,28.512146 67.138725,25.746550 65.788757,22.499018 
	C65.613274,22.201969 65.356468,22.019169 64.846352,21.390219 
	C64.505165,20.924181 64.163979,20.458143 63.883266,19.471596 
	C63.600048,19.288637 63.316830,19.105677 63.012424,18.986891 
	C63.012424,18.986891 63.073086,18.957098 62.981823,18.286015 
	C62.352036,17.176245 61.722248,16.066477 60.982719,14.224809 
	C59.122299,10.479473 57.261879,6.734136 54.925282,2.030181 
	C48.227879,9.893824 44.789669,18.563187 40.292393,27.296577 
	C39.210106,29.114147 37.931316,30.844769 37.081570,32.765232 
	C34.284927,39.085758 32.689034,46.287830 28.588079,51.562130 
	C25.686308,55.294151 24.224945,58.592274 23.329254,63.250835 
	C22.741745,64.396301 22.455013,66.071655 21.518917,66.603012 
	C14.330509,70.683380 13.418911,78.635490 9.331775,85.209244 
	C9.183144,85.792122 9.034512,86.374992 8.304941,87.205605 
	C7.858595,88.107025 7.412251,89.008438 6.371375,90.243240 
	C5.876238,91.480904 5.381103,92.718567 4.308316,94.263351 
	C3.905398,95.686958 3.502479,97.110558 3.099561,98.534164 
	C4.070248,98.700798 5.040936,98.867439 6.811573,99.305267 
	C13.331175,99.512924 19.851433,99.834351 26.369617,99.796799 
	C27.273102,99.791595 28.166372,98.013298 29.664501,96.806808 
	C30.380919,95.535545 31.097336,94.264275 32.103359,92.393547 
	C32.428661,91.605736 32.753960,90.817932 33.664692,89.715088 
	C34.375454,88.136162 35.086216,86.557243 35.946491,84.543221 
	C35.946491,84.543221 36.025482,84.089973 36.534275,83.919434 
	C36.713444,83.621658 36.892616,83.323883 37.004539,83.007858 
M235.998276,76.001488 
	C235.998276,76.001488 235.993347,76.018410 236.012207,76.717293 
	C236.995987,78.155312 237.979782,79.593338 238.999802,81.000099 
	C238.999802,81.000099 238.966248,81.034317 239.010422,81.742760 
	C240.280457,83.838028 241.550491,85.933296 242.952835,88.765884 
	C243.661606,90.049217 244.086395,92.063202 245.135498,92.470985 
	C247.692917,93.465050 250.525787,93.871910 253.283051,94.115501 
	C253.764587,94.158051 254.905960,92.257568 254.917496,91.245087 
	C255.040665,80.421425 255.109756,69.593201 254.851532,58.774387 
	C254.820877,57.489849 252.947388,55.506653 251.587341,55.151234 
	C248.763763,54.413342 247.962524,56.476128 247.988312,59.036640 
	C248.053696,65.529686 248.081940,72.024734 247.978867,78.516655 
	C247.954849,80.029373 247.349060,81.532860 247.009201,82.984108 
	C247.009201,82.984108 246.953293,82.975906 246.959930,82.250351 
	C243.628708,76.667381 240.372131,71.037834 236.930710,65.523643 
	C235.491119,63.216953 233.659225,61.155106 231.999207,59.000843 
	C231.999207,59.000843 232.018387,58.994835 231.981262,58.220982 
	C229.999634,53.213898 225.864197,55.414547 222.200348,55.007877 
	C222.200348,56.607853 222.200348,57.860111 222.095779,59.716064 
	C222.130310,60.121548 222.164825,60.527031 222.010193,61.864189 
	C222.083115,67.916206 222.156036,73.968231 222.124908,80.663071 
	C222.155151,81.094749 222.185394,81.526436 222.025818,82.642075 
	C222.097122,83.105896 222.168427,83.569725 222.124207,84.655373 
	C222.154236,85.074181 222.184250,85.492989 222.022507,86.784561 
	C222.013306,88.253654 221.628876,89.858253 222.097107,91.154930 
	C222.596603,92.538132 223.901794,93.630371 224.855240,94.849640 
	C226.222305,93.702972 228.144028,92.804985 228.800903,91.339905 
	C229.461777,89.865845 228.864563,87.827736 228.954742,85.111755 
	C229.020035,80.204323 229.085342,75.296890 229.165741,69.255646 
	C231.728058,71.255676 232.855301,72.135551 234.000000,73.000000 
	C234.000000,73.000000 233.983612,73.016617 234.008789,73.678772 
	C234.666153,74.454361 235.323517,75.229942 235.998276,76.001488 
M209.728516,60.951092 
	C210.480865,60.904430 211.233215,60.857769 212.597458,61.074001 
	C213.026489,61.212757 213.806152,61.521568 213.833389,61.465450 
	C214.567017,59.952709 216.043381,57.247036 215.760117,57.046051 
	C213.907013,55.731255 211.672485,54.160316 209.558594,54.154621 
	C203.043076,54.137066 196.525772,54.784893 189.267166,55.054134 
	C188.251633,56.890980 186.638718,58.644939 186.369492,60.585335 
	C186.021194,63.095642 186.941818,65.752502 186.971588,68.350204 
	C187.068222,76.786835 187.007706,85.225266 187.007706,93.984138 
	C195.403290,93.984138 203.211685,93.810295 211.007187,94.052162 
	C215.381088,94.187881 216.764359,92.527885 215.565674,87.965057 
	C208.563782,87.965057 201.473068,87.965057 194.213623,87.965057 
	C194.213623,84.386848 194.213623,81.296593 194.213623,78.399368 
	C197.056763,77.810928 199.617584,77.280922 203.073883,76.836090 
	C203.367416,76.774666 203.660934,76.713249 203.937439,76.593735 
	C203.937439,76.593735 204.006546,76.633789 203.822418,76.811470 
	C203.822418,76.811470 203.994110,77.001183 204.096970,77.511650 
	C204.401810,77.342781 204.706665,77.173912 205.743637,76.915375 
	C206.476105,76.851303 207.208572,76.787231 208.698532,76.900566 
	C209.420990,75.534966 210.143433,74.169365 210.865891,72.803764 
	C209.669556,72.203667 208.495377,71.148003 207.272736,71.088501 
	C203.534119,70.906555 199.776871,71.107597 195.189819,70.992218 
	C192.396484,65.404984 193.480835,62.644604 198.867599,61.528515 
	C199.321320,61.434502 199.707626,61.015160 200.938965,60.867580 
	C202.578705,60.807148 204.218445,60.746716 206.467087,60.867546 
	C207.309860,60.831551 208.152618,60.795559 209.728516,60.951092 
M169.000168,75.000336 
	C169.000168,75.000336 168.984238,74.975258 169.637985,74.782562 
	C172.519012,71.252068 175.712265,67.922661 178.164062,64.115723 
	C179.636490,61.829487 179.952103,58.798225 180.564438,55.265556 
	C171.843872,55.172127 163.121155,54.956154 154.404861,55.107918 
	C152.979797,55.132732 150.441071,56.719471 150.390289,57.687794 
	C150.246246,60.434292 152.216339,61.569462 155.866058,60.980442 
	C159.933899,60.964905 164.001755,60.949364 168.710907,60.918259 
	C169.137924,60.937302 169.564957,60.956345 170.058655,61.721870 
	C169.729004,62.614075 169.592163,63.653728 169.039978,64.375748 
	C163.249313,71.947479 157.297684,79.398758 151.646271,87.071686 
	C150.701157,88.354858 150.433578,90.694588 150.877884,92.254097 
	C151.191498,93.354836 153.148010,94.409363 154.530502,94.685127 
	C156.619186,95.101768 158.846832,94.821793 161.695923,94.959190 
	C163.480865,94.687119 165.265793,94.415039 167.969299,94.027039 
	C172.231216,94.027039 176.493134,94.027039 180.783951,94.027039 
	C180.783951,91.742058 180.783951,90.135185 180.783951,88.115082 
	C174.523636,88.115082 168.440048,88.115082 161.823212,88.115082 
	C162.227417,86.397072 162.510162,85.195274 163.103317,83.373108 
	C165.060349,80.577133 167.017380,77.781151 169.000168,75.000336 
M125.669083,59.921776 
	C126.111359,59.969505 126.553642,60.017235 127.291138,60.723095 
	C129.545715,61.677414 131.727356,62.944557 134.076721,63.492439 
	C136.159592,63.978180 138.428879,63.664612 140.615875,63.703892 
	C139.715118,61.622719 139.395828,58.727028 137.815002,57.598469 
	C130.127579,52.110382 118.989021,52.498158 112.133568,58.374092 
	C105.169388,64.343224 102.998497,76.325523 107.238487,84.582878 
	C110.954544,91.819885 118.660103,95.652870 127.446182,95.059647 
	C135.915131,94.487823 141.107971,89.657471 145.134415,82.851692 
	C141.134018,79.744591 137.916397,79.981873 135.288834,83.301682 
	C131.043640,88.665314 122.791039,90.120140 118.099586,85.965981 
	C111.636620,80.243179 110.169144,72.744400 115.157524,66.615349 
	C117.551773,63.673618 121.665527,62.131374 125.669083,59.921776 
z"/>
<path fill="#75A6AC" opacity="1.000000" stroke="none" 
	d="
M54.020512,68.178200 
	C54.765755,68.125641 55.510994,68.073082 56.627235,68.296242 
	C56.998234,68.571960 57.000122,69.000793 57.082336,69.299057 
	C60.311474,73.047104 63.754692,69.047493 67.368469,70.147697 
	C69.362259,70.534149 71.042717,71.118324 72.599884,70.883827 
	C74.026543,70.668991 75.320091,69.570190 76.672295,68.860901 
	C75.776039,67.550781 74.879791,66.240654 73.983124,64.725243 
	C73.982712,64.519951 73.988708,64.109413 74.046204,63.774742 
	C74.415131,62.599613 74.726578,61.759159 75.353569,61.080879 
	C77.586205,65.379356 79.503281,69.515656 81.420364,73.651955 
	C80.988953,73.866913 80.557541,74.081879 80.126137,74.296837 
	C81.428017,75.181541 82.729904,76.066238 83.925415,77.251106 
	C84.903831,79.692116 85.988632,81.832962 87.359634,84.089661 
	C88.435516,84.785309 89.225212,85.365105 89.837097,86.288910 
	C88.200348,87.622231 86.741386,88.611542 85.231277,89.584869 
	C85.180130,89.568878 85.194817,89.462708 85.318687,89.139458 
	C84.689102,87.873306 83.935646,86.930412 83.019653,85.658920 
	C81.153984,81.471848 78.461769,79.849884 73.763313,81.656677 
	C74.615974,82.617569 75.309441,83.399071 76.160294,84.340500 
	C76.542870,84.703506 76.797623,84.857773 77.050064,84.972351 
	C77.018196,84.981499 77.029869,84.916214 77.170128,85.126114 
	C77.570381,85.547226 77.830376,85.758438 78.056725,85.977135 
	C78.023071,85.984612 78.053200,85.922592 78.046219,86.292030 
	C78.720222,87.759331 79.401207,88.857201 80.049492,89.971481 
	C80.016792,89.987900 80.048897,89.922142 80.095367,90.216873 
	C80.463242,90.998573 80.784637,91.485550 81.071983,91.976723 
	C81.037933,91.980927 81.057365,91.915123 81.044205,92.265366 
	C81.018105,93.082924 81.005180,93.550232 80.787125,93.933159 
	C80.041733,93.903305 79.501472,93.957840 78.707504,93.884392 
	C77.940971,93.512703 77.428146,93.269005 76.915321,93.025299 
	C76.023956,91.899940 75.132584,90.774582 74.057175,89.101433 
	C73.243423,88.389191 72.613716,88.224739 71.984016,88.060295 
	C62.029602,88.060295 52.075184,88.060295 41.036972,88.060295 
	C43.475929,83.055252 45.363552,79.181610 47.871304,74.978958 
	C51.013107,73.072495 54.270065,72.123230 54.020512,68.178200 
M60.589714,76.986847 
	C57.491413,76.743423 54.386482,76.276131 51.298092,76.367538 
	C50.074959,76.403740 48.888569,77.681458 47.433102,78.543335 
	C57.839748,78.543335 67.352783,78.543335 76.865814,78.543335 
	C76.843620,78.023537 76.821419,77.503746 76.799217,76.983948 
	C71.719223,76.983948 66.639221,76.983948 60.589714,76.986847 
M55.769527,81.002625 
	C53.860672,81.442284 51.951813,81.881943 50.042957,82.321594 
	C50.201466,82.715179 50.359974,83.108765 50.518486,83.502350 
	C56.953907,83.502350 63.389328,83.502350 69.824745,83.502350 
	C69.851273,82.916367 69.877792,82.330383 69.904312,81.744400 
	C65.502625,81.499870 61.100929,81.255341 55.769527,81.002625 
z"/>
<path fill="#76A8A9" opacity="1.000000" stroke="none" 
	d="
M23.955826,62.910660 
	C24.224945,58.592274 25.686308,55.294151 28.588079,51.562130 
	C32.689034,46.287830 34.284927,39.085758 37.081570,32.765232 
	C37.931316,30.844769 39.210106,29.114147 40.885052,27.141405 
	C41.669811,26.992971 41.861912,26.999712 41.984051,27.341240 
	C41.950050,28.601517 41.863674,30.310982 42.039761,30.338459 
	C47.166958,31.138519 47.444489,35.990349 49.673122,39.199253 
	C50.211960,39.975101 51.250820,40.403675 52.403069,40.989006 
	C53.204094,40.977970 53.661800,40.969875 54.425568,41.127953 
	C56.834579,45.495163 58.937527,49.696194 61.024868,54.174297 
	C61.004913,54.636326 61.000568,54.821285 60.682625,54.909698 
	C59.494240,53.708290 58.765255,52.419785 57.690659,51.566566 
	C57.033127,51.044491 55.845020,51.190651 54.895199,51.036705 
	C51.939316,46.468731 48.948124,41.922989 46.049625,37.318890 
	C45.208794,35.983269 44.633461,34.480507 43.891396,32.962254 
	C37.062191,38.550140 42.536404,43.129772 44.471973,47.870842 
	C45.489796,50.363949 46.801662,52.737007 47.977089,55.936996 
	C47.639492,58.801243 47.305557,60.892765 46.606819,63.057743 
	C44.784466,63.405731 43.326916,63.680264 41.932037,63.630569 
	C42.379692,62.535835 42.764675,61.765324 43.313484,60.832817 
	C43.686348,60.440720 43.847790,60.181030 43.976830,59.587090 
	C43.638844,58.580936 43.285656,57.879452 42.840828,56.848537 
	C41.593502,56.391830 40.370193,55.966873 39.298725,56.210297 
	C37.859783,56.537209 36.538143,57.380455 35.206482,57.652378 
	C35.987434,56.266159 36.506599,54.869270 37.506569,54.254719 
	C42.124306,51.416790 40.016884,49.262135 36.441311,46.259567 
	C33.423862,51.418659 30.619452,56.213505 27.655722,61.165585 
	C27.295731,61.548092 27.139204,61.800720 26.986805,62.316193 
	C26.946789,62.551678 26.801983,63.006931 26.645592,63.165798 
	C26.294193,63.553707 26.144764,63.809387 26.029116,64.065720 
	C26.017317,64.039734 26.070494,64.060242 25.771385,63.987274 
	C24.966795,63.579758 24.461309,63.245209 23.955826,62.910660 
z"/>
<path fill="#6EA6A8" opacity="1.000000" stroke="none" 
	d="
M125.000557,59.955341 
	C121.665527,62.131374 117.551773,63.673618 115.157524,66.615349 
	C110.169144,72.744400 111.636620,80.243179 118.099586,85.965981 
	C122.791039,90.120140 131.043640,88.665314 135.288834,83.301682 
	C137.916397,79.981873 141.134018,79.744591 145.134415,82.851692 
	C141.107971,89.657471 135.915131,94.487823 127.446182,95.059647 
	C118.660103,95.652870 110.954544,91.819885 107.238487,84.582878 
	C102.998497,76.325523 105.169388,64.343224 112.133568,58.374092 
	C118.989021,52.498158 130.127579,52.110382 137.815002,57.598469 
	C139.395828,58.727028 139.715118,61.622719 140.615875,63.703896 
	C138.428879,63.664612 136.159592,63.978180 134.076721,63.492439 
	C131.727356,62.944557 129.545715,61.677414 127.217072,60.100754 
	C130.804733,60.429260 134.466476,61.380108 138.243271,62.360836 
	C133.436569,55.669800 125.139648,53.914761 117.423843,57.847469 
	C109.039246,62.121059 104.977997,72.098869 108.106155,80.739456 
	C111.441414,89.952087 120.118843,94.780220 129.988464,92.914780 
	C135.584061,91.857170 140.207352,87.577766 139.995773,83.121552 
	C138.793961,84.128662 137.924500,85.122665 136.836960,85.718872 
	C133.560074,87.515282 130.364746,89.928192 126.833282,90.690071 
	C120.489563,92.058685 113.613152,87.350769 111.599983,81.228210 
	C109.078705,73.560371 111.463753,64.019920 117.130310,61.170383 
	C119.386780,60.035671 122.355881,60.318073 125.000557,59.955341 
z"/>
<path fill="#72CDD1" opacity="1.000000" stroke="none" 
	d="
M222.199341,60.932514 
	C222.164825,60.527031 222.130310,60.121548 222.471085,59.276070 
	C225.964920,55.353649 228.979385,57.882568 232.018387,58.994835 
	C232.018387,58.994835 231.999207,59.000843 231.995972,59.361115 
	C235.581558,66.156944 239.072876,72.650261 242.827591,78.987511 
	C243.767944,80.574631 245.555237,81.659958 246.953293,82.975906 
	C246.953293,82.975906 247.009201,82.984108 246.969940,83.370300 
	C247.316574,85.364601 247.702484,86.972702 248.139801,88.881760 
	C248.130341,90.115456 248.069443,91.048195 247.726044,91.837143 
	C246.574860,90.775459 245.706177,89.857574 244.801361,88.605179 
	C242.832245,85.858551 240.899246,83.446434 238.966248,81.034317 
	C238.966248,81.034317 238.999802,81.000099 238.990387,80.652206 
	C237.985107,78.875679 236.989227,77.447044 235.993347,76.018417 
	C235.993347,76.018410 235.998276,76.001488 236.003021,75.662537 
	C235.333038,74.554604 234.658325,73.785614 233.983612,73.016617 
	C233.983612,73.016617 234.000000,73.000000 233.998505,72.632759 
	C232.212036,68.792030 230.427048,65.318542 228.642059,61.845058 
	C228.114166,62.057014 227.586273,62.268967 227.058380,62.480919 
	C227.058380,71.980194 227.058380,81.479477 226.787766,91.203979 
	C225.380875,90.694016 224.009293,90.154732 223.182571,89.161804 
	C222.517715,88.363289 222.512283,87.015739 222.214264,85.911797 
	C222.184250,85.492989 222.154236,85.074181 222.341721,84.166267 
	C222.444702,83.104149 222.330154,82.531128 222.215637,81.958115 
	C222.185394,81.526436 222.155151,81.094749 222.382294,79.982452 
	C222.492905,73.178734 222.346130,67.055626 222.199341,60.932514 
z"/>
<path fill="#7BA3A5" opacity="1.000000" stroke="none" 
	d="
M23.642540,63.080746 
	C24.461309,63.245209 24.966795,63.579758 25.735355,64.352066 
	C23.690023,68.869820 21.381615,72.949806 18.814278,77.083282 
	C18.407598,77.771332 18.259848,78.405899 18.049597,79.334167 
	C17.677013,80.094292 17.366930,80.560722 16.799147,81.082275 
	C16.396898,81.773079 16.252350,82.408760 16.053352,83.417915 
	C14.377785,87.050026 12.756668,90.308655 11.240265,93.356796 
	C20.962967,96.248634 27.353868,93.369720 30.474680,84.196266 
	C30.514009,84.080650 30.753735,84.033218 31.172659,84.076904 
	C31.968616,84.490173 32.491833,84.780495 32.995716,85.403992 
	C33.010674,87.168159 33.044968,88.599136 33.079262,90.030121 
	C32.753960,90.817932 32.428661,91.605736 31.625868,92.711731 
	C30.095551,93.355988 29.042725,93.682068 27.692402,94.191635 
	C24.877880,94.984871 22.389095,95.807404 19.836115,96.146187 
	C17.131187,96.505127 13.870943,94.244720 11.604110,98.006020 
	C10.506907,98.004692 9.775438,98.003998 8.964254,97.734413 
	C7.937555,97.624390 6.990570,97.783257 6.034353,98.215073 
	C6.020623,98.670044 6.016122,98.852066 6.011622,99.034081 
	C5.040936,98.867439 4.070248,98.700798 3.099561,98.534164 
	C3.502479,97.110558 3.905398,95.686958 4.936637,93.999847 
	C6.031940,92.460846 6.498923,91.185349 6.965906,89.909859 
	C7.412251,89.008438 7.858595,88.107025 8.857214,87.031654 
	C9.568377,86.223679 9.727266,85.589645 9.886156,84.955620 
	C13.418911,78.635490 14.330509,70.683380 21.518917,66.603012 
	C22.455013,66.071655 22.741745,64.396301 23.642540,63.080746 
z"/>
<path fill="#76CACD" opacity="1.000000" stroke="none" 
	d="
M125.334824,59.938560 
	C122.355881,60.318073 119.386780,60.035671 117.130310,61.170383 
	C111.463753,64.019920 109.078705,73.560371 111.599983,81.228210 
	C113.613152,87.350769 120.489563,92.058685 126.833282,90.690071 
	C130.364746,89.928192 133.560074,87.515282 136.836960,85.718872 
	C137.924500,85.122665 138.793961,84.128662 139.995773,83.121552 
	C140.207352,87.577766 135.584061,91.857170 129.988464,92.914780 
	C120.118843,94.780220 111.441414,89.952087 108.106155,80.739456 
	C104.977997,72.098869 109.039246,62.121059 117.423843,57.847469 
	C125.139648,53.914761 133.436569,55.669800 138.243271,62.360836 
	C134.466476,61.380108 130.804733,60.429260 127.069458,59.771683 
	C126.553642,60.017235 126.111359,59.969505 125.334824,59.938560 
z"/>
<path fill="#6FA9AC" opacity="1.000000" stroke="none" 
	d="
M202.178391,76.750916 
	C199.617584,77.280922 197.056763,77.810928 194.213623,78.399368 
	C194.213623,81.296593 194.213623,84.386848 194.213623,87.965057 
	C201.473068,87.965057 208.563782,87.965057 215.565674,87.965057 
	C216.764359,92.527885 215.381088,94.187881 211.007187,94.052162 
	C203.211685,93.810295 195.403290,93.984138 187.007706,93.984138 
	C187.007706,85.225266 187.068222,76.786835 186.971588,68.350204 
	C186.941818,65.752502 186.021194,63.095642 186.369492,60.585335 
	C186.638718,58.644939 188.251633,56.890980 189.760376,55.333076 
	C190.482620,56.054520 190.711655,56.497017 190.590256,57.115425 
	C189.831100,58.987865 189.098694,60.678905 189.069794,62.381893 
	C188.945694,69.691887 189.024658,77.005402 189.037048,84.317619 
	C189.050217,92.097656 189.053864,92.097649 197.472015,92.058083 
	C202.930756,92.069107 207.922485,92.069107 212.914200,92.069107 
	C212.914429,91.385681 212.914642,90.702263 212.914856,90.018837 
	C207.615494,90.018837 202.316116,90.018837 196.613037,89.994415 
	C192.898621,90.064400 191.589005,88.101746 192.073059,85.213730 
	C192.677811,81.605728 189.517273,76.388046 196.361938,75.109955 
	C198.525696,75.695633 200.352036,76.223274 202.178391,76.750916 
z"/>
<path fill="#7AAAAB" opacity="1.000000" stroke="none" 
	d="
M42.054008,27.006451 
	C41.861912,26.999712 41.669811,26.992971 41.189568,26.975945 
	C44.789669,18.563187 48.227879,9.893824 54.925282,2.030181 
	C57.261879,6.734136 59.122299,10.479473 60.850365,14.823715 
	C61.503033,16.600780 62.288059,17.778938 63.073086,18.957098 
	C63.073086,18.957098 63.012424,18.986891 63.124035,19.154213 
	C63.398083,19.574194 63.593800,19.797716 63.822792,19.992104 
	C64.163979,20.458143 64.505165,20.924181 65.020287,21.863007 
	C65.338409,22.582304 65.519882,22.797358 65.738640,22.980955 
	C67.138725,25.746550 68.538811,28.512146 69.522072,31.641121 
	C68.391663,32.011497 67.678085,32.018494 66.780502,32.162727 
	C66.363411,32.502964 66.165703,32.735977 66.001678,32.999504 
	C66.000000,33.000000 66.000313,33.001541 65.740005,33.005005 
	C65.306328,33.016163 65.132957,33.023853 64.979637,33.015846 
	C64.999695,33.000153 64.957573,33.028790 65.014488,32.712086 
	C64.349854,30.948599 63.628307,29.501816 62.943325,28.037003 
	C62.979889,28.018974 62.937527,28.088642 62.984463,27.788689 
	C62.327499,26.676096 61.623604,25.863457 60.952469,25.036755 
	C60.985226,25.022694 60.958836,25.088930 60.864899,24.888340 
	C60.617912,24.432121 60.429245,24.206244 60.128815,23.782204 
	C60.052666,23.554289 59.969822,23.080887 59.870071,22.880762 
	C59.608959,22.426813 59.413635,22.202570 59.021008,21.683632 
	C57.240944,18.858648 55.624222,16.357941 53.994770,13.619120 
	C53.785580,13.030653 53.589119,12.680302 53.392654,12.329949 
	C53.275158,12.904128 53.157665,13.478307 53.020103,14.027054 
	C53.000031,14.001621 53.050930,14.041448 52.690071,14.061225 
	C51.312294,15.187482 50.109032,16.176006 49.318085,17.425528 
	C47.773712,19.865307 46.459839,22.450991 44.751427,25.051247 
	C43.652882,25.752970 42.853443,26.379709 42.054008,27.006451 
z"/>
<path fill="#75A2A4" opacity="1.000000" stroke="none" 
	d="
M85.282425,89.600853 
	C86.741386,88.611542 88.200348,87.622231 90.196503,86.321106 
	C94.656334,86.042717 91.712166,83.777672 91.443451,83.126770 
	C89.752693,79.031265 87.778946,75.052574 86.228134,70.969986 
	C87.728050,70.260063 88.898567,69.615425 90.069092,68.970779 
	C94.290863,76.733360 98.512634,84.495941 102.867149,92.953278 
	C102.990646,94.112755 102.981392,94.577477 102.682518,94.914398 
	C99.930695,95.177628 97.468483,95.568657 95.116821,95.740814 
	C95.477135,95.098221 95.726898,94.674500 96.284111,94.060081 
	C95.489960,93.198570 94.463089,92.309372 93.271477,91.901634 
	C90.652657,91.005547 87.950539,90.352882 85.282425,89.600853 
M91.471184,87.498749 
	C91.471184,87.498749 91.513084,87.482872 91.471184,87.498749 
z"/>
<path fill="#73D0D1" opacity="1.000000" stroke="none" 
	d="
M169.991974,60.975388 
	C169.564957,60.956345 169.137924,60.937302 168.295044,60.659889 
	C163.582764,60.238037 159.286346,60.074558 154.704788,59.817249 
	C154.325043,58.792126 154.230438,57.860825 154.590134,56.938229 
	C162.334641,56.913666 169.624832,56.880405 177.237411,56.894554 
	C177.988541,57.011913 178.417313,57.081860 178.865417,57.508644 
	C177.089859,60.925682 175.281982,63.978374 173.503967,67.048363 
	C171.979630,69.680374 170.489487,72.332191 168.984238,74.975258 
	C168.984238,74.975258 169.000168,75.000336 168.645477,75.028503 
	C165.852859,78.035652 163.414948,81.014626 160.712738,84.162781 
	C159.999466,86.205238 159.550507,88.078506 158.765289,89.907448 
	C157.242218,88.877586 156.055405,87.892059 154.971924,86.581207 
	C155.860840,85.193924 156.638138,84.125732 157.433334,83.071030 
	C161.931686,77.104645 166.476562,71.172585 170.906326,65.155754 
	C172.039352,63.616806 173.798889,61.591789 169.991974,60.975388 
M171.531281,59.518719 
	C171.531281,59.518719 171.478134,59.540749 171.531281,59.518719 
z"/>
<path fill="#73D2D5" opacity="1.000000" stroke="none" 
	d="
M197.004990,92.047058 
	C189.053864,92.097649 189.050217,92.097656 189.037048,84.317619 
	C189.024658,77.005402 188.945694,69.691887 189.069794,62.381893 
	C189.098694,60.678905 189.831100,58.987865 191.062683,57.132835 
	C196.585617,56.990620 201.285675,57.006897 205.980896,57.481133 
	C205.936768,58.854820 205.897461,59.770550 205.858185,60.686287 
	C204.218445,60.746716 202.578705,60.807148 200.304764,60.471916 
	C196.542526,58.310642 193.789749,58.570293 192.341614,62.118317 
	C190.463760,66.719170 192.353561,71.885178 196.007370,73.368073 
	C196.013336,74.153374 196.018936,74.602646 196.024536,75.051918 
	C189.517273,76.388046 192.677811,81.605728 192.073059,85.213730 
	C191.589005,88.101746 192.898621,90.064400 196.608002,90.331970 
	C197.006134,91.144981 197.005554,91.596016 197.004990,92.047058 
z"/>
<path fill="#6EA4A6" opacity="1.000000" stroke="none" 
	d="
M244.837494,88.939690 
	C245.706177,89.857574 246.574860,90.775459 248.116150,91.874794 
	C250.226166,91.683296 251.663574,91.310349 253.311707,90.592194 
	C253.685455,84.446892 254.017670,78.645050 253.957703,72.847260 
	C253.910202,68.253700 253.381805,63.665112 252.948975,58.750050 
	C249.479004,56.535072 250.077209,59.399971 250.057724,60.923344 
	C249.961090,68.481094 250.130234,76.043793 249.930893,83.597496 
	C249.886658,85.273636 248.731842,86.920471 248.088379,88.580803 
	C247.702484,86.972702 247.316574,85.364601 246.970795,83.398544 
	C247.349060,81.532860 247.954849,80.029373 247.978867,78.516655 
	C248.081940,72.024734 248.053696,65.529686 247.988312,59.036640 
	C247.962524,56.476128 248.763763,54.413342 251.587341,55.151234 
	C252.947388,55.506653 254.820877,57.489849 254.851532,58.774387 
	C255.109756,69.593201 255.040665,80.421425 254.917496,91.245087 
	C254.905960,92.257568 253.764587,94.158051 253.283051,94.115501 
	C250.525787,93.871910 247.692917,93.465050 245.135498,92.470985 
	C244.086395,92.063202 243.661606,90.049217 243.147736,88.496292 
	C243.840912,88.464363 244.339203,88.702026 244.837494,88.939690 
z"/>
<path fill="#71A9AB" opacity="1.000000" stroke="none" 
	d="
M170.025314,61.348633 
	C173.798889,61.591789 172.039352,63.616806 170.906326,65.155754 
	C166.476562,71.172585 161.931686,77.104645 157.433334,83.071030 
	C156.638138,84.125732 155.860840,85.193924 154.701935,86.800201 
	C152.165451,89.940903 153.105255,91.451012 156.101181,91.968330 
	C157.667084,92.238724 159.302567,92.106354 160.921875,92.491089 
	C160.963242,93.496811 160.989334,94.167336 161.015427,94.837860 
	C158.846832,94.821793 156.619186,95.101768 154.530502,94.685127 
	C153.148010,94.409363 151.191498,93.354836 150.877884,92.254097 
	C150.433578,90.694588 150.701157,88.354858 151.646271,87.071686 
	C157.297684,79.398758 163.249313,71.947479 169.039978,64.375748 
	C169.592163,63.653728 169.729004,62.614075 170.025314,61.348633 
z"/>
<path fill="#71A8AB" opacity="1.000000" stroke="none" 
	d="
M33.015053,85.070816 
	C32.491833,84.780495 31.968616,84.490173 31.200436,83.708893 
	C30.135509,82.527672 29.422693,81.519165 28.477480,81.200928 
	C23.788103,79.622154 24.292828,77.054451 27.260178,73.950333 
	C29.423210,73.294449 31.220276,72.648468 33.024300,72.380234 
	C35.034798,74.535995 37.038345,76.313988 39.041893,78.091988 
	C38.718792,78.869469 38.395691,79.646957 37.776653,80.950165 
	C37.336678,82.004547 37.192638,82.533203 37.048599,83.061852 
	C37.048599,83.061852 37.004539,83.007858 36.831989,83.161438 
	C36.448120,83.573341 36.236801,83.831657 36.025482,84.089973 
	C36.025482,84.089973 35.946491,84.543221 35.523659,84.765816 
	C34.405567,85.015884 33.710308,85.043350 33.015053,85.070816 
M30.478294,75.203133 
	C30.440067,75.388382 30.401838,75.573631 30.363609,75.758881 
	C30.489805,75.594589 30.615999,75.430298 30.478294,75.203133 
z"/>
<path fill="#75A1AB" opacity="1.000000" stroke="none" 
	d="
M39.324055,77.954178 
	C37.038345,76.313988 35.034798,74.535995 33.267899,72.305145 
	C34.585560,70.903252 35.666576,69.954208 36.926727,69.275467 
	C38.693699,67.682114 40.281532,65.818459 41.869366,63.954800 
	C43.326916,63.680264 44.784466,63.405731 46.807278,63.065315 
	C47.372540,62.999432 47.773010,63.005135 47.773010,63.005135 
	C46.557392,65.124466 45.341770,67.243797 43.610794,69.726105 
	C42.408470,71.756592 41.721493,73.424088 41.034519,75.091583 
	C40.558422,75.999847 40.082317,76.908112 39.324055,77.954178 
z"/>
<path fill="#72A8AB" opacity="1.000000" stroke="none" 
	d="
M159.101547,89.951775 
	C159.550507,88.078506 159.999466,86.205238 161.015625,84.164856 
	C161.986176,83.996323 162.389557,83.994896 162.792923,83.993477 
	C162.510162,85.195274 162.227417,86.397072 161.823212,88.115082 
	C168.440048,88.115082 174.523636,88.115082 180.783951,88.115082 
	C180.783951,90.135185 180.783951,91.742058 180.783951,94.027039 
	C176.493134,94.027039 172.231216,94.027039 167.488693,93.770187 
	C166.995560,93.303421 166.983017,93.093498 167.376160,92.869614 
	C171.215897,92.456169 174.649918,92.056679 178.083954,91.657188 
	C178.068909,91.088722 178.053864,90.520248 178.038818,89.951775 
	C171.726395,89.951775 165.413971,89.951775 159.101547,89.951775 
z"/>
<path fill="#7CAEAE" opacity="1.000000" stroke="none" 
	d="
M66.964500,32.025490 
	C67.678085,32.018494 68.391663,32.011497 69.462067,32.004093 
	C72.116119,36.093719 74.413361,40.183750 76.754501,44.890503 
	C77.560570,46.659946 78.322754,47.812668 79.084930,48.965385 
	C79.373787,49.424206 79.662636,49.883030 79.977013,50.903297 
	C79.999260,51.641300 79.995979,51.817867 79.593292,51.996521 
	C77.862946,51.994301 76.532013,51.989986 75.084961,51.720352 
	C74.773064,51.123238 74.577278,50.791447 74.474182,50.310520 
	C74.566864,50.161381 74.618980,49.995159 74.618980,49.995159 
	C74.618980,49.995159 74.357437,50.393555 74.238007,50.171295 
	C74.132744,49.781414 74.146904,49.613800 74.292236,49.086063 
	C73.847931,45.360950 73.425133,41.893021 69.045525,40.676888 
	C68.242599,38.948299 67.598907,37.528240 66.974152,35.833557 
	C66.998245,35.375496 67.003403,35.192051 67.079796,34.970692 
	C67.151031,34.932781 67.157661,34.740097 67.157661,34.740097 
	C67.157661,34.740097 66.991264,34.991302 66.729546,34.997871 
	C66.293480,35.017708 66.119133,35.030975 65.974220,35.026505 
	C66.003654,35.008766 65.951530,35.056072 65.970215,34.713898 
	C65.992706,33.914993 65.996513,33.458267 66.000313,33.001541 
	C66.000313,33.001541 66.000000,33.000000 66.187256,32.863289 
	C66.607635,32.523563 66.804298,32.289867 66.964500,32.025490 
z"/>
<path fill="#64A8AE" opacity="1.000000" stroke="none" 
	d="
M227.058380,90.978752 
	C227.058380,81.479477 227.058380,71.980194 227.058380,62.480919 
	C227.586273,62.268967 228.114166,62.057014 228.642059,61.845058 
	C230.427048,65.318542 232.212036,68.792030 233.989777,72.640472 
	C232.855301,72.135551 231.728058,71.255676 229.165741,69.255646 
	C229.085342,75.296890 229.020035,80.204323 228.709503,85.858337 
	C227.995621,88.062859 227.527008,89.520805 227.058380,90.978752 
z"/>
<path fill="#79AEB0" opacity="1.000000" stroke="none" 
	d="
M67.001396,69.988571 
	C63.754692,69.047493 60.311474,73.047104 57.458466,69.299118 
	C58.505108,68.998772 59.257839,68.996635 60.200729,68.842407 
	C60.634575,68.468811 60.827164,68.209381 60.968655,67.912010 
	C60.877537,66.349373 61.087673,64.687721 60.615276,63.250389 
	C60.083710,61.633011 58.936687,60.217899 58.408878,58.452812 
	C59.845848,58.792938 60.931324,59.395061 62.357529,59.997025 
	C63.153347,59.989552 63.608433,59.982243 64.292343,60.051949 
	C64.809525,60.316685 64.980064,60.580551 64.987831,61.228806 
	C65.636642,62.681919 66.330414,63.826782 67.015671,64.979462 
	C67.007141,64.987274 67.027092,64.990753 67.110397,65.174026 
	C67.333275,65.590775 67.511543,65.789551 67.827690,66.281509 
	C67.977570,67.063248 68.028259,67.517082 67.872604,68.178894 
	C67.444633,68.920761 67.223015,69.454666 67.001396,69.988571 
z"/>
<path fill="#789FA1" opacity="1.000000" stroke="none" 
	d="
M102.972137,95.042206 
	C102.981392,94.577477 102.990646,94.112755 103.008453,93.299500 
	C103.910324,94.831314 104.803658,96.711662 106.135063,99.514122 
	C102.516716,99.691277 99.473457,99.902252 96.426941,99.972748 
	C93.096764,100.049805 89.734123,99.717758 86.438545,100.065529 
	C81.382515,100.599060 78.268265,98.698181 76.968269,93.396347 
	C77.428146,93.269005 77.940971,93.512703 78.878082,94.211555 
	C81.109360,95.784363 82.837738,97.672218 84.738991,97.866287 
	C89.305779,98.332428 93.974007,98.245697 98.557503,97.860664 
	C100.097099,97.731339 101.504379,96.026779 102.972137,95.042206 
z"/>
<path fill="#77A4A5" opacity="1.000000" stroke="none" 
	d="
M89.940048,68.646378 
	C88.898567,69.615425 87.728050,70.260063 85.910721,70.831413 
	C83.496346,67.525070 81.728775,64.292015 80.106308,60.763000 
	C81.435326,59.312702 82.619232,58.158367 83.803139,57.004028 
	C84.193062,57.752560 84.582993,58.501091 85.004593,59.942375 
	C85.947731,61.756069 86.859200,62.877014 87.770660,63.997959 
	C88.450775,65.439301 89.130890,66.880638 89.940048,68.646378 
z"/>
<path fill="#7EADAF" opacity="1.000000" stroke="none" 
	d="
M205.985748,57.023178 
	C201.285675,57.006897 196.585617,56.990620 191.413116,56.956932 
	C190.711655,56.497017 190.482620,56.054520 190.131378,55.393124 
	C196.525772,54.784893 203.043076,54.137066 209.558594,54.154621 
	C211.672485,54.160316 213.907013,55.731255 215.760117,57.046051 
	C216.043381,57.247036 214.567017,59.952709 213.833389,61.465450 
	C213.806152,61.521568 213.026489,61.212757 212.280762,60.699406 
	C211.964066,60.324810 211.922577,59.839787 212.142227,59.627403 
	C212.201859,58.643585 212.110291,57.227890 211.870987,57.202465 
	C209.924881,56.995659 207.951096,57.049026 205.985748,57.023178 
z"/>
<path fill="#6EA4A6" opacity="1.000000" stroke="none" 
	d="
M246.956604,82.613129 
	C245.555237,81.659958 243.767944,80.574631 242.827591,78.987511 
	C239.072876,72.650261 235.581558,66.156944 231.999237,59.351662 
	C233.659225,61.155106 235.491119,63.216953 236.930710,65.523643 
	C240.372131,71.037834 243.628708,76.667381 246.956604,82.613129 
z"/>
<path fill="#82A7AA" opacity="1.000000" stroke="none" 
	d="
M178.846069,57.151802 
	C178.417313,57.081860 177.988541,57.011913 176.894424,56.689285 
	C168.864655,56.600914 161.500244,56.765221 154.135834,56.929527 
	C154.230438,57.860825 154.325043,58.792126 154.706085,60.049332 
	C154.992508,60.375240 154.994171,60.837742 154.994171,60.837742 
	C152.216339,61.569462 150.246246,60.434292 150.390289,57.687794 
	C150.441071,56.719471 152.979797,55.132732 154.404861,55.107918 
	C163.121155,54.956154 171.843872,55.172127 180.396713,55.727108 
	C179.768005,56.509705 179.307037,56.830750 178.846069,57.151802 
z"/>
<path fill="#78A1A4" opacity="1.000000" stroke="none" 
	d="
M9.043969,98.003296 
	C9.775438,98.003998 10.506907,98.004692 12.073355,98.005508 
	C18.170254,97.581573 23.432173,97.157509 28.786655,96.814056 
	C28.879221,96.894653 29.064373,97.055832 29.064373,97.055832 
	C28.166372,98.013298 27.273102,99.791595 26.369617,99.796799 
	C19.851433,99.834351 13.331175,99.512924 6.411598,99.169678 
	C6.016122,98.852066 6.020623,98.670044 6.407742,98.230553 
	C7.541564,97.983154 8.292767,97.993225 9.043969,98.003296 
z"/>
<path fill="#6BADB2" opacity="1.000000" stroke="none" 
	d="
M196.007004,73.032043 
	C192.353561,71.885178 190.463760,66.719170 192.341614,62.118317 
	C193.789749,58.570293 196.542526,58.310642 199.897919,60.411606 
	C199.707626,61.015160 199.321320,61.434502 198.867599,61.528515 
	C193.480835,62.644604 192.396484,65.404984 195.798157,71.261292 
	C196.942612,71.989746 197.478729,72.449127 197.680466,72.935333 
	C196.899734,72.985458 196.453369,73.008751 196.007004,73.032043 
z"/>
<path fill="#66A8A8" opacity="1.000000" stroke="none" 
	d="
M178.865417,57.508644 
	C179.307037,56.830750 179.768005,56.509705 180.508301,56.145226 
	C179.952103,58.798225 179.636490,61.829487 178.164062,64.115723 
	C175.712265,67.922661 172.519012,71.252068 169.311111,74.878906 
	C170.489487,72.332191 171.979630,69.680374 173.503967,67.048363 
	C175.281982,63.978374 177.089859,60.925682 178.865417,57.508644 
z"/>
<path fill="#75A2A4" opacity="1.000000" stroke="none" 
	d="
M83.766739,56.675747 
	C82.619232,58.158367 81.435326,59.312702 79.810425,60.579330 
	C77.979988,57.789639 76.590530,54.887657 75.201080,51.985672 
	C76.532013,51.989986 77.862946,51.994301 79.797440,51.998573 
	C80.401009,51.998535 80.808685,51.999237 80.808685,51.999237 
	C81.782578,53.448643 82.756462,54.898052 83.766739,56.675747 
z"/>
<path fill="#6FA9AC" opacity="1.000000" stroke="none" 
	d="
M198.014832,72.908508 
	C197.478729,72.449127 196.942612,71.989746 196.216690,71.345016 
	C199.776871,71.107597 203.534119,70.906555 207.272736,71.088501 
	C208.495377,71.148003 209.669556,72.203667 210.865891,72.803764 
	C210.143433,74.169365 209.420990,75.534966 208.349823,76.494850 
	C207.151031,75.063919 206.434982,73.347816 205.424026,73.151649 
	C203.028748,72.686897 200.493500,72.943504 198.014832,72.908508 
z"/>
<path fill="#7DCDCE" opacity="1.000000" stroke="none" 
	d="
M197.680466,72.935333 
	C200.493500,72.943504 203.028748,72.686897 205.424026,73.151649 
	C206.434982,73.347816 207.151031,75.063919 207.971085,76.406151 
	C207.208572,76.787231 206.476105,76.851303 205.123276,76.941696 
	C204.333298,76.979065 204.163696,76.990128 203.994110,77.001183 
	C203.994110,77.001183 203.822418,76.811470 203.815475,76.609833 
	C203.808533,76.408203 203.638474,76.390556 203.638474,76.390556 
	C203.638474,76.390556 203.954468,76.651825 203.954468,76.651825 
	C203.660934,76.713249 203.367416,76.774666 202.626129,76.793503 
	C200.352036,76.223274 198.525696,75.695633 196.361938,75.109955 
	C196.018936,74.602646 196.013336,74.153374 196.007370,73.368073 
	C196.453369,73.008751 196.899734,72.985458 197.680466,72.935333 
z"/>
<path fill="#7BB5B7" opacity="1.000000" stroke="none" 
	d="
M62.016800,59.997189 
	C60.931324,59.395061 59.845848,58.792938 58.462479,58.093716 
	C57.112545,55.914337 56.060505,53.832054 54.951836,51.393242 
	C55.845020,51.190651 57.033127,51.044491 57.690659,51.566566 
	C58.765255,52.419785 59.494240,53.708290 60.940437,54.909824 
	C61.683338,54.997204 61.854832,54.987923 62.012932,54.989288 
	C61.999542,54.999935 62.021393,54.973202 62.008636,55.230679 
	C61.995495,55.660023 61.995113,55.831886 61.994530,56.252209 
	C61.994320,56.500671 61.994633,56.997597 61.993820,57.372623 
	C62.000935,58.497498 62.008865,59.247341 62.016800,59.997189 
z"/>
<path fill="#6EA4A6" opacity="1.000000" stroke="none" 
	d="
M226.787766,91.203979 
	C227.527008,89.520805 227.995621,88.062859 228.641449,86.320847 
	C228.864563,87.827736 229.461777,89.865845 228.800903,91.339905 
	C228.144028,92.804985 226.222305,93.702972 224.855240,94.849640 
	C223.901794,93.630371 222.596603,92.538132 222.097107,91.154930 
	C221.628876,89.858253 222.013306,88.253654 222.118378,86.348175 
	C222.512283,87.015739 222.517715,88.363289 223.182571,89.161804 
	C224.009293,90.154732 225.380875,90.694016 226.787766,91.203979 
z"/>
<path fill="#71A9AB" opacity="1.000000" stroke="none" 
	d="
M155.430115,60.909092 
	C154.994171,60.837742 154.992508,60.375240 154.991211,60.143158 
	C159.286346,60.074558 163.582764,60.238037 167.974396,60.667671 
	C164.001755,60.949364 159.933899,60.964905 155.430115,60.909092 
z"/>
<path fill="#6EA4A6" opacity="1.000000" stroke="none" 
	d="
M231.999817,58.607910 
	C228.979385,57.882568 225.964920,55.353649 222.523376,58.974220 
	C222.200348,57.860111 222.200348,56.607853 222.200348,55.007877 
	C225.864197,55.414547 229.999634,53.213898 231.999817,58.607910 
z"/>
<path fill="#7ECBCD" opacity="1.000000" stroke="none" 
	d="
M205.980896,57.481133 
	C207.951096,57.049026 209.924881,56.995659 211.870987,57.202465 
	C212.110291,57.227890 212.201859,58.643585 211.832550,59.665985 
	C210.533966,60.197826 209.764679,60.478699 208.995392,60.759567 
	C208.152618,60.795559 207.309860,60.831551 206.162628,60.776917 
	C205.897461,59.770550 205.936768,58.854820 205.980896,57.481133 
z"/>
<path fill="#66A8A8" opacity="1.000000" stroke="none" 
	d="
M162.948120,83.683289 
	C162.389557,83.994896 161.986176,83.996323 161.279907,83.995667 
	C163.414948,81.014626 165.852859,78.035652 168.632584,75.020927 
	C167.017380,77.781151 165.060349,80.577133 162.948120,83.683289 
z"/>
<path fill="#7DA4A6" opacity="1.000000" stroke="none" 
	d="
M53.646076,68.108093 
	C54.270065,72.123230 51.013107,73.072495 48.179344,74.808746 
	C49.668720,72.657700 51.470181,70.347847 53.646076,68.108093 
z"/>
<path fill="#6EA4A6" opacity="1.000000" stroke="none" 
	d="
M222.104767,61.398354 
	C222.346130,67.055626 222.492905,73.178734 222.434326,79.661041 
	C222.156036,73.968231 222.083115,67.916206 222.104767,61.398354 
z"/>
<path fill="#64A8AE" opacity="1.000000" stroke="none" 
	d="
M244.801361,88.605179 
	C244.339203,88.702026 243.840912,88.464363 243.081573,88.127632 
	C241.550491,85.933296 240.280457,83.838028 238.988342,81.388535 
	C240.899246,83.446434 242.832245,85.858551 244.801361,88.605179 
z"/>
<path fill="#72BDBF" opacity="1.000000" stroke="none" 
	d="
M166.970474,92.883560 
	C166.983017,93.093498 166.995560,93.303421 167.029419,93.828148 
	C165.265793,94.415039 163.480865,94.687119 161.355682,94.898529 
	C160.989334,94.167336 160.963242,93.496811 161.325348,92.446800 
	C163.465851,92.339401 165.218155,92.611481 166.970474,92.883560 
z"/>
<path fill="#749FA5" opacity="1.000000" stroke="none" 
	d="
M47.934566,62.691715 
	C47.773010,63.005135 47.372540,62.999432 47.172081,62.991859 
	C47.305557,60.892765 47.639492,58.801243 48.003807,56.312706 
	C50.447918,58.046955 49.933792,60.206284 47.934566,62.691715 
z"/>
<path fill="#78A1A4" opacity="1.000000" stroke="none" 
	d="
M32.995716,85.403992 
	C33.710308,85.043350 34.405567,85.015884 35.448898,84.983368 
	C35.086216,86.557243 34.375454,88.136162 33.371979,89.872604 
	C33.044968,88.599136 33.010674,87.168159 32.995716,85.403992 
z"/>
<path fill="#64A8AE" opacity="1.000000" stroke="none" 
	d="
M236.002777,76.367859 
	C236.989227,77.447044 237.985107,78.875679 238.972275,80.667831 
	C237.979782,79.593338 236.995987,78.155312 236.002777,76.367859 
z"/>
<path fill="#78A1A4" opacity="1.000000" stroke="none" 
	d="
M27.989899,94.008148 
	C29.042725,93.682068 30.095551,93.355988 31.481066,93.011459 
	C31.097336,94.264275 30.380919,95.535545 29.364437,96.931320 
	C29.064373,97.055832 28.879221,96.894653 28.805988,96.532730 
	C28.485138,95.449928 28.237520,94.729034 27.989899,94.008148 
z"/>
<path fill="#749FA5" opacity="1.000000" stroke="none" 
	d="
M41.333096,74.932312 
	C41.721493,73.424088 42.408470,71.756592 43.458778,70.040054 
	C43.091969,71.585022 42.361820,73.179039 41.333096,74.932312 
z"/>
<path fill="#7BA5A5" opacity="1.000000" stroke="none" 
	d="
M63.027454,18.621555 
	C62.288059,17.778938 61.503033,16.600780 60.905235,15.189665 
	C61.722248,16.066477 62.352036,17.176245 63.027454,18.621555 
z"/>
<path fill="#77A4A5" opacity="1.000000" stroke="none" 
	d="
M79.041046,48.623894 
	C78.322754,47.812668 77.560570,46.659946 76.920990,45.211292 
	C77.694786,46.037704 78.345970,47.160053 79.041046,48.623894 
z"/>
<path fill="#75A2A4" opacity="1.000000" stroke="none" 
	d="
M87.730148,63.680138 
	C86.859200,62.877014 85.947731,61.756069 85.039337,60.264610 
	C85.924820,61.050167 86.807220,62.206245 87.730148,63.680138 
z"/>
<path fill="#78A1A4" opacity="1.000000" stroke="none" 
	d="
M6.668640,90.076553 
	C6.498923,91.185349 6.031940,92.460846 5.225462,93.846283 
	C5.381103,92.718567 5.876238,91.480904 6.668640,90.076553 
z"/>
<path fill="#64A8AE" opacity="1.000000" stroke="none" 
	d="
M233.996201,73.347702 
	C234.658325,73.785614 235.333038,74.554604 235.994324,75.664558 
	C235.323517,75.229942 234.666153,74.454361 233.996201,73.347702 
z"/>
<path fill="#789FA1" opacity="1.000000" stroke="none" 
	d="
M72.105423,88.341141 
	C72.613716,88.224739 73.243423,88.389191 73.925491,88.811646 
	C73.394180,88.920433 72.810509,88.771210 72.105423,88.341141 
z"/>
<path fill="#78A1A4" opacity="1.000000" stroke="none" 
	d="
M9.608965,85.082428 
	C9.727266,85.589645 9.568377,86.223679 9.147683,86.907791 
	C9.034512,86.374992 9.183144,85.792122 9.608965,85.082428 
z"/>
<path fill="#7DA4A6" opacity="1.000000" stroke="none" 
	d="
M60.010567,68.994499 
	C59.257839,68.996635 58.505108,68.998772 57.376251,69.000854 
	C57.000122,69.000793 56.998234,68.571960 56.996933,68.358139 
	C57.752380,68.102745 58.509132,68.061157 59.637402,68.301651 
	C60.008923,68.583740 60.010567,68.994499 60.010567,68.994499 
z"/>
<path fill="#6BADB2" opacity="1.000000" stroke="none" 
	d="
M209.361954,60.855331 
	C209.764679,60.478699 210.533966,60.197826 211.612915,59.878372 
	C211.922577,59.839787 211.964066,60.324810 211.974823,60.567959 
	C211.233215,60.857769 210.480865,60.904430 209.361954,60.855331 
z"/>
<path fill="#78A1A4" opacity="1.000000" stroke="none" 
	d="
M37.329437,82.930168 
	C37.192638,82.533203 37.336678,82.004547 37.647213,81.254333 
	C37.745895,81.621338 37.678085,82.209908 37.329437,82.930168 
z"/>
<path fill="#6EA4A6" opacity="1.000000" stroke="none" 
	d="
M222.120728,82.300095 
	C222.330154,82.531128 222.444702,83.104149 222.399475,83.855362 
	C222.168427,83.569725 222.097122,83.105896 222.120728,82.300095 
z"/>
<path fill="#75A6AC" opacity="1.000000" stroke="none" 
	d="
M60.200729,68.842407 
	C60.010567,68.994499 60.008923,68.583740 60.009476,68.378365 
	C60.010029,68.172989 60.484554,68.024826 60.726604,67.968414 
	C60.827164,68.209381 60.634575,68.468811 60.200729,68.842407 
z"/>
<path fill="#77A4A5" opacity="1.000000" stroke="none" 
	d="
M80.841324,51.740482 
	C80.808685,51.999237 80.401009,51.998535 80.196854,51.996483 
	C79.995979,51.817867 79.999260,51.641300 80.014847,51.200027 
	C80.309418,51.117455 80.591690,51.299591 80.841324,51.740482 
z"/>
<path fill="#6FA9AC" opacity="1.000000" stroke="none" 
	d="
M203.945953,76.622780 
	C203.954468,76.651825 203.638474,76.390556 203.638474,76.390556 
	C203.638474,76.390556 203.808533,76.408203 203.907532,76.520996 
	C204.006546,76.633789 203.937439,76.593735 203.945953,76.622780 
z"/>
<path fill="#6FA9AC" opacity="1.000000" stroke="none" 
	d="
M204.045532,77.256416 
	C204.163696,76.990128 204.333298,76.979065 204.757202,76.986526 
	C204.706665,77.173912 204.401810,77.342781 204.045532,77.256416 
z"/>
<path fill="#7BA5A5" opacity="1.000000" stroke="none" 
	d="
M65.763702,22.739986 
	C65.519882,22.797358 65.338409,22.582304 65.106277,22.143208 
	C65.356468,22.019169 65.613274,22.201969 65.763702,22.739986 
z"/>
<path fill="#78A1A4" opacity="1.000000" stroke="none" 
	d="
M36.279877,84.004700 
	C36.236801,83.831657 36.448120,83.573341 36.865612,83.170563 
	C36.892616,83.323883 36.713444,83.621658 36.279877,84.004700 
z"/>
<path fill="#7BA5A5" opacity="1.000000" stroke="none" 
	d="
M63.853027,19.731850 
	C63.593800,19.797716 63.398083,19.574194 63.134628,19.122128 
	C63.316830,19.105677 63.600048,19.288637 63.853027,19.731850 
z"/>
<path fill="#000000" opacity="1.000000" stroke="none" 
	d="
M75.084961,51.720348 
	C76.590530,54.887657 77.979988,57.789639 79.665321,60.875290 
	C81.728775,64.292015 83.496346,67.525070 85.581329,70.896698 
	C87.778946,75.052574 89.752693,79.031265 91.443451,83.126770 
	C91.712166,83.777672 94.656334,86.042717 90.374306,85.977097 
	C89.225212,85.365105 88.435516,84.785309 87.305481,83.728607 
	C85.987343,81.151443 85.009567,79.051193 84.031784,76.950943 
	C82.729904,76.066238 81.428017,75.181541 80.126137,74.296837 
	C80.557541,74.081879 80.988953,73.866913 81.420364,73.651955 
	C79.503281,69.515656 77.586205,65.379356 75.310188,60.788589 
	C74.662773,59.880238 74.374290,59.426346 74.040253,58.605198 
	C68.669434,48.211639 63.394794,38.157787 57.966587,28.187538 
	C57.112511,26.618820 55.562794,25.428841 54.334728,24.063742 
	C53.200356,25.692558 52.065987,27.321375 50.955315,28.965073 
	C50.979019,28.979956 50.953503,28.931248 50.618561,29.057978 
	C47.588558,29.272654 46.278076,27.521830 47.430115,25.105019 
	C49.209450,21.372227 51.168243,17.724976 53.050926,14.041447 
	C53.050930,14.041448 53.000031,14.001621 53.263885,13.988087 
	C53.527737,13.974551 54.007500,13.857233 54.007500,13.857233 
	C55.624222,16.357941 57.240944,18.858648 58.997566,21.941093 
	C59.414917,22.708851 59.692371,22.894869 59.969822,23.080887 
	C59.969822,23.080887 60.052666,23.554289 60.095398,24.037106 
	C60.411697,24.709591 60.685265,24.899261 60.958836,25.088932 
	C60.958836,25.088930 60.985226,25.022694 60.985466,25.363323 
	C61.636314,26.498850 62.286919,27.293747 62.937527,28.088642 
	C62.937527,28.088642 62.979889,28.018974 62.980881,28.391796 
	C63.640438,30.186007 64.299004,31.607399 64.957573,33.028790 
	C64.957573,33.028790 64.999695,33.000153 64.999817,33.329056 
	C65.317139,34.123997 65.634338,34.590034 65.951530,35.056072 
	C65.951530,35.056072 66.003654,35.008766 66.046196,35.279308 
	C66.377563,35.735962 66.666389,35.922073 66.955215,36.108181 
	C67.598907,37.528240 68.242599,38.948299 69.085594,41.019707 
	C70.910286,44.262764 72.535675,46.854477 74.161064,49.446190 
	C74.146904,49.613800 74.132744,49.781414 74.252014,50.178123 
	C74.385452,50.407211 74.381500,50.459660 74.381500,50.459660 
	C74.577278,50.791447 74.773064,51.123238 75.084961,51.720348 
z"/>
<path fill="#76A3A4" opacity="1.000000" stroke="none" 
	d="
M50.931614,28.950191 
	C52.065987,27.321375 53.200356,25.692558 54.334728,24.063742 
	C55.562794,25.428841 57.112511,26.618820 57.966587,28.187538 
	C63.394794,38.157787 68.669434,48.211639 73.735435,58.536194 
	C72.384613,58.079445 71.293037,57.324444 70.201469,56.569443 
	C69.958496,56.797230 69.715530,57.025017 69.472557,57.252804 
	C70.977943,59.538342 72.483322,61.823875 73.988708,64.109413 
	C73.988708,64.109413 73.982712,64.519951 74.050278,64.965973 
	C73.718742,65.946083 73.319641,66.480179 72.599335,66.861786 
	C66.464226,55.606388 60.650341,44.503475 54.836456,33.400558 
	C54.344498,33.545078 53.852535,33.689594 53.360577,33.834114 
	C53.613552,36.209999 53.866528,38.585884 54.119503,40.961777 
	C53.661800,40.969875 53.204094,40.977970 52.453094,40.695805 
	C49.803730,35.380333 51.445896,31.857769 56.262207,28.950191 
	C54.485344,28.950191 52.708477,28.950191 50.931614,28.950191 
M68.460075,53.497921 
	C68.460075,53.497921 68.516060,53.473000 68.460075,53.497921 
z"/>
<path fill="#000000" opacity="1.000000" stroke="none" 
	d="
M85.231277,89.584862 
	C87.950539,90.352882 90.652657,91.005547 93.271477,91.901634 
	C94.463089,92.309372 95.489960,93.198570 95.825882,93.992012 
	C92.307968,94.086296 89.520851,94.313560 86.815109,93.944412 
	C84.840332,93.675003 82.972740,92.619949 81.057365,91.915123 
	C81.057365,91.915123 81.037933,91.980927 81.022316,91.664841 
	C80.687431,90.873222 80.368164,90.397682 80.048897,89.922142 
	C80.048897,89.922142 80.016792,89.987900 80.011063,89.630966 
	C79.354614,88.156883 78.703911,87.039742 78.053200,85.922592 
	C78.053200,85.922592 78.023071,85.984612 77.971603,85.722374 
	C77.623383,85.278831 77.326630,85.097519 77.029869,84.916214 
	C77.029869,84.916214 77.018196,84.981499 76.963867,84.726677 
	C76.607323,84.374763 76.305122,84.277672 76.002914,84.180580 
	C75.309441,83.399071 74.615974,82.617569 73.763313,81.656677 
	C78.461769,79.849884 81.153984,81.471848 82.951065,85.966347 
	C83.761612,87.555809 84.478210,88.509254 85.194817,89.462708 
	C85.194817,89.462708 85.180130,89.568878 85.231277,89.584862 
z"/>
<path fill="#7EBBBF" opacity="1.000000" stroke="none" 
	d="
M61.074471,76.985397 
	C66.639221,76.983948 71.719223,76.983948 76.799217,76.983948 
	C76.821419,77.503746 76.843620,78.023537 76.865814,78.543335 
	C67.352783,78.543335 57.839748,78.543335 47.433102,78.543335 
	C48.888569,77.681458 50.074959,76.403740 51.298092,76.367538 
	C54.386482,76.276131 57.491413,76.743423 61.074471,76.985397 
z"/>
<path fill="#7EB6B8" opacity="1.000000" stroke="none" 
	d="
M102.682518,94.914398 
	C101.504379,96.026779 100.097099,97.731339 98.557503,97.860664 
	C93.974007,98.245697 89.305779,98.332428 84.738991,97.866287 
	C82.837738,97.672218 81.109360,95.784363 79.131790,94.339539 
	C79.501472,93.957840 80.041733,93.903305 80.957306,94.195084 
	C85.890503,95.014160 90.448387,95.486916 95.006279,95.959679 
	C97.468483,95.568657 99.930695,95.177628 102.682518,94.914398 
z"/>
<path fill="#000000" opacity="1.000000" stroke="none" 
	d="
M56.234383,81.006714 
	C61.100929,81.255341 65.502625,81.499870 69.904312,81.744400 
	C69.877792,82.330383 69.851273,82.916367 69.824745,83.502350 
	C63.389328,83.502350 56.953907,83.502350 50.518486,83.502350 
	C50.359974,83.108765 50.201466,82.715179 50.042957,82.321594 
	C51.951813,81.881943 53.860672,81.442284 56.234383,81.006714 
z"/>
<path fill="#789FA1" opacity="1.000000" stroke="none" 
	d="
M95.116821,95.740814 
	C90.448387,95.486916 85.890503,95.014160 81.162430,94.279465 
	C81.005180,93.550232 81.018105,93.082924 81.044205,92.265366 
	C82.972740,92.619949 84.840332,93.675003 86.815109,93.944412 
	C89.520851,94.313560 92.307968,94.086296 95.518433,94.182716 
	C95.726898,94.674500 95.477135,95.098221 95.116821,95.740814 
z"/>
<path fill="#7BB5B8" opacity="1.000000" stroke="none" 
	d="
M72.920547,67.014275 
	C73.319641,66.480179 73.718742,65.946083 74.050690,65.171265 
	C74.879791,66.240654 75.776039,67.550781 76.672295,68.860901 
	C75.320091,69.570190 74.026543,70.668991 72.599884,70.883827 
	C71.042717,71.118324 69.362259,70.534149 67.368469,70.147697 
	C67.223015,69.454666 67.444633,68.920761 68.107590,68.217827 
	C68.548935,68.048798 69.000511,68.200531 69.226814,68.374939 
	C70.601257,68.354271 71.749397,68.159187 72.941597,67.727570 
	C72.985657,67.491043 72.920547,67.014275 72.920547,67.014275 
z"/>
<path fill="#7BB5B8" opacity="1.000000" stroke="none" 
	d="
M74.046204,63.774742 
	C72.483322,61.823875 70.977943,59.538342 69.472557,57.252804 
	C69.715530,57.025017 69.958496,56.797230 70.201469,56.569443 
	C71.293037,57.324444 72.384613,58.079445 73.781006,58.903450 
	C74.374290,59.426346 74.662773,59.880238 74.994637,60.626419 
	C74.726578,61.759159 74.415131,62.599613 74.046204,63.774742 
z"/>
<path fill="#75A2A4" opacity="1.000000" stroke="none" 
	d="
M83.925407,77.251106 
	C85.009567,79.051193 85.987343,81.151443 87.019279,83.612747 
	C85.988632,81.832962 84.903831,79.692116 83.925407,77.251106 
z"/>
<path fill="#75A2A4" opacity="1.000000" stroke="none" 
	d="
M85.318687,89.139458 
	C84.478210,88.509254 83.761612,87.555809 83.113602,86.294937 
	C83.935646,86.930412 84.689102,87.873306 85.318687,89.139458 
z"/>
<path fill="#789FA1" opacity="1.000000" stroke="none" 
	d="
M78.046219,86.292030 
	C78.703911,87.039742 79.354614,88.156883 80.043762,89.614548 
	C79.401207,88.857201 78.720222,87.759331 78.046219,86.292030 
z"/>
<path fill="#789FA1" opacity="1.000000" stroke="none" 
	d="
M80.095367,90.216873 
	C80.368164,90.397682 80.687431,90.873222 81.056366,91.660645 
	C80.784637,91.485550 80.463242,90.998573 80.095367,90.216873 
z"/>
<path fill="#789FA1" opacity="1.000000" stroke="none" 
	d="
M77.170128,85.126114 
	C77.326630,85.097519 77.623383,85.278831 78.005264,85.714897 
	C77.830376,85.758438 77.570381,85.547226 77.170128,85.126114 
z"/>
<path fill="#789FA1" opacity="1.000000" stroke="none" 
	d="
M76.160294,84.340500 
	C76.305122,84.277672 76.607323,84.374763 76.995735,84.717529 
	C76.797623,84.857773 76.542870,84.703506 76.160294,84.340500 
z"/>
<path fill="#000000" opacity="1.000000" stroke="none" 
	d="
M26.894207,73.960236 
	C24.292828,77.054451 23.788103,79.622154 28.477480,81.200928 
	C29.422693,81.519165 30.135509,82.527672 30.927696,83.585945 
	C30.753735,84.033218 30.514009,84.080650 30.474680,84.196266 
	C27.353868,93.369720 20.962967,96.248634 11.240265,93.356796 
	C12.756668,90.308655 14.377785,87.050026 16.330782,83.289627 
	C16.794058,82.200958 16.925453,81.614059 17.056847,81.027153 
	C17.366930,80.560722 17.677013,80.094292 18.328358,79.209076 
	C18.804146,78.203461 18.938675,77.616631 19.073204,77.029800 
	C21.381615,72.949806 23.690023,68.869820 26.034464,64.425034 
	C26.070494,64.060242 26.017317,64.039734 26.272778,63.975471 
	C26.619486,63.609779 26.710735,63.308357 26.801983,63.006931 
	C26.801983,63.006931 26.946789,62.551678 27.229733,62.228966 
	C27.613466,61.606953 27.714254,61.307655 27.815041,61.008354 
	C30.619452,56.213505 33.423862,51.418659 36.441311,46.259567 
	C40.016884,49.262135 42.124306,51.416790 37.506569,54.254719 
	C36.506599,54.869270 35.987434,56.266159 35.131966,58.019165 
	C34.578083,59.748947 34.215511,60.804211 33.686707,61.768291 
	C31.449478,65.847054 29.162806,69.898682 26.894207,73.960236 
z"/>
<path fill="#000000" opacity="1.000000" stroke="none" 
	d="
M69.000511,68.200531 
	C69.000511,68.200531 68.548935,68.048798 68.313950,68.009857 
	C68.028259,67.517082 67.977570,67.063248 67.852974,66.050850 
	C67.609680,65.203300 67.359024,65.036118 67.027092,64.990753 
	C67.027092,64.990753 67.007141,64.987274 66.986679,64.638824 
	C66.321747,63.167103 65.677269,62.043835 65.032799,60.920563 
	C64.980064,60.580551 64.809525,60.316685 64.257957,59.719749 
	C63.607475,58.539127 63.220203,57.767719 62.890568,56.747295 
	C62.905895,56.333241 62.863590,56.168201 62.849548,55.744156 
	C62.592339,55.314499 62.306866,55.143852 62.021393,54.973206 
	C62.021393,54.973202 61.999542,54.999935 61.945732,54.736244 
	C61.608105,54.280777 61.324291,54.089001 61.040474,53.897224 
	C58.937527,49.696194 56.834579,45.495163 54.425568,41.127953 
	C53.866528,38.585884 53.613552,36.209999 53.360577,33.834114 
	C53.852535,33.689594 54.344498,33.545078 54.836456,33.400558 
	C60.650341,44.503475 66.464226,55.606388 72.599335,66.861786 
	C72.920547,67.014275 72.985657,67.491043 72.550491,67.740692 
	C71.077057,68.060402 70.038788,68.130463 69.000511,68.200531 
z"/>
<path fill="#79A5A9" opacity="1.000000" stroke="none" 
	d="
M27.260176,73.950333 
	C29.162806,69.898682 31.449478,65.847054 33.686707,61.768291 
	C34.215511,60.804211 34.578083,59.748947 35.091637,58.368843 
	C36.538143,57.380455 37.859783,56.537209 39.298725,56.210297 
	C40.370193,55.966873 41.593502,56.391830 42.478935,56.780861 
	C39.286865,60.527298 36.462753,64.056595 36.747589,69.005173 
	C35.666576,69.954208 34.585560,70.903252 33.260944,71.927383 
	C31.220276,72.648468 29.423210,73.294449 27.260176,73.950333 
z"/>
<path fill="#79BBBD" opacity="1.000000" stroke="none" 
	d="
M50.955315,28.965073 
	C52.708477,28.950191 54.485344,28.950191 56.262207,28.950191 
	C51.445896,31.857769 49.803730,35.380333 52.109772,40.698742 
	C51.250820,40.403675 50.211960,39.975101 49.673122,39.199253 
	C47.444489,35.990349 47.166958,31.138519 42.039761,30.338459 
	C41.863674,30.310982 41.950050,28.601517 41.984051,27.341240 
	C42.853443,26.379709 43.652882,25.752970 44.763901,25.425369 
	C45.796040,27.357538 46.153587,29.340958 47.317127,30.546400 
	C49.369942,32.673130 50.826435,31.936663 50.953503,28.931248 
	C50.953503,28.931248 50.979019,28.979956 50.955315,28.965073 
z"/>
<path fill="#000000" opacity="1.000000" stroke="none" 
	d="
M36.926727,69.275467 
	C36.462753,64.056595 39.286865,60.527298 42.570572,57.110283 
	C43.285656,57.879452 43.638844,58.580936 43.727345,59.676842 
	C43.358322,60.379108 43.253986,60.686958 43.149658,60.994812 
	C42.764675,61.765324 42.379692,62.535835 41.932037,63.630569 
	C40.281532,65.818459 38.693699,67.682114 36.926727,69.275467 
z"/>
<path fill="#78A1A4" opacity="1.000000" stroke="none" 
	d="
M27.655724,61.165585 
	C27.714254,61.307655 27.613466,61.606953 27.269749,61.993477 
	C27.139204,61.800720 27.295731,61.548092 27.655724,61.165585 
z"/>
<path fill="#74A3A6" opacity="1.000000" stroke="none" 
	d="
M61.024868,54.174297 
	C61.324291,54.089001 61.608105,54.280777 61.959122,54.725601 
	C61.854832,54.987923 61.683338,54.997204 61.254036,55.006363 
	C61.000568,54.821285 61.004913,54.636326 61.024868,54.174297 
z"/>
<path fill="#749FA5" opacity="1.000000" stroke="none" 
	d="
M43.313484,60.832817 
	C43.253986,60.686958 43.358322,60.379108 43.712143,59.981503 
	C43.847790,60.181030 43.686348,60.440720 43.313484,60.832817 
z"/>
<path fill="#78A1A4" opacity="1.000000" stroke="none" 
	d="
M26.645592,63.165798 
	C26.710735,63.308357 26.619486,63.609779 26.284576,64.001457 
	C26.144764,63.809387 26.294193,63.553707 26.645592,63.165798 
z"/>
<path fill="#73D4D8" opacity="1.000000" stroke="none" 
	d="
M253.100983,90.937393 
	C251.663574,91.310349 250.226166,91.683296 248.398651,92.018593 
	C248.069443,91.048195 248.130341,90.115456 248.139816,88.881760 
	C248.731842,86.920471 249.886658,85.273636 249.930893,83.597496 
	C250.130234,76.043793 249.961090,68.481094 250.057724,60.923344 
	C250.077209,59.399971 249.479004,56.535072 252.926575,59.209846 
	C253.048416,70.308403 253.074692,80.622894 253.100983,90.937393 
z"/>
<path fill="#7FB3B2" opacity="1.000000" stroke="none" 
	d="
M27.692402,94.191635 
	C28.237520,94.729034 28.485138,95.449928 28.713425,96.452133 
	C23.432173,97.157509 18.170254,97.581573 12.439089,98.006134 
	C13.870943,94.244720 17.131187,96.505127 19.836115,96.146187 
	C22.389095,95.807404 24.877880,94.984871 27.692402,94.191635 
z"/>
<path fill="#7FB3B2" opacity="1.000000" stroke="none" 
	d="
M8.964254,97.734406 
	C8.292767,97.993225 7.541564,97.983154 6.416972,97.957596 
	C6.990570,97.783257 7.937555,97.624390 8.964254,97.734406 
z"/>
<path fill="#78A1A4" opacity="1.000000" stroke="none" 
	d="
M18.814278,77.083282 
	C18.938675,77.616631 18.804146,78.203461 18.390854,78.915382 
	C18.259848,78.405899 18.407598,77.771332 18.814278,77.083282 
z"/>
<path fill="#78A1A4" opacity="1.000000" stroke="none" 
	d="
M16.799149,81.082275 
	C16.925453,81.614059 16.794058,82.200958 16.385231,82.916153 
	C16.252350,82.408760 16.396898,81.773079 16.799149,81.082275 
z"/>
<path fill="#7ED0D3" opacity="1.000000" stroke="none" 
	d="
M197.472015,92.058083 
	C197.005554,91.596016 197.006134,91.144981 197.011719,90.356384 
	C202.316116,90.018837 207.615494,90.018837 212.914856,90.018837 
	C212.914642,90.702263 212.914429,91.385681 212.914200,92.069107 
	C207.922485,92.069107 202.930756,92.069107 197.472015,92.058083 
z"/>
<path fill="#76A3A4" opacity="1.000000" stroke="none" 
	d="
M50.618561,29.057978 
	C50.826435,31.936663 49.369942,32.673130 47.317127,30.546400 
	C46.153587,29.340958 45.796040,27.357538 45.063011,25.350388 
	C46.459839,22.450991 47.773712,19.865307 49.318085,17.425528 
	C50.109032,16.176006 51.312294,15.187482 52.690071,14.061224 
	C51.168243,17.724976 49.209450,21.372227 47.430115,25.105019 
	C46.278076,27.521830 47.588558,29.272654 50.618561,29.057978 
z"/>
<path fill="#7BA5A5" opacity="1.000000" stroke="none" 
	d="
M65.014488,32.712086 
	C64.299004,31.607399 63.640438,30.186007 62.944313,28.409824 
	C63.628307,29.501816 64.349854,30.948599 65.014488,32.712086 
z"/>
<path fill="#7BA5A5" opacity="1.000000" stroke="none" 
	d="
M62.984463,27.788689 
	C62.286919,27.293747 61.636314,26.498850 60.952705,25.377384 
	C61.623604,25.863457 62.327499,26.676096 62.984463,27.788689 
z"/>
<path fill="#76A3A4" opacity="1.000000" stroke="none" 
	d="
M53.994770,13.619119 
	C54.007500,13.857233 53.527737,13.974551 53.283955,14.013518 
	C53.157665,13.478307 53.275158,12.904128 53.392654,12.329949 
	C53.589119,12.680302 53.785580,13.030653 53.994770,13.619119 
z"/>
<path fill="#7BA5A5" opacity="1.000000" stroke="none" 
	d="
M65.970215,34.713898 
	C65.634338,34.590034 65.317139,34.123997 64.979759,33.344749 
	C65.132957,33.023853 65.306328,33.016163 65.740005,33.005005 
	C65.996513,33.458267 65.992706,33.914993 65.970215,34.713898 
z"/>
<path fill="#7BA5A5" opacity="1.000000" stroke="none" 
	d="
M66.780502,32.162727 
	C66.804298,32.289867 66.607635,32.523563 66.188934,32.862793 
	C66.165703,32.735977 66.363411,32.502964 66.780502,32.162727 
z"/>
<path fill="#7BA5A5" opacity="1.000000" stroke="none" 
	d="
M60.864899,24.888340 
	C60.685265,24.899261 60.411697,24.709591 60.171547,24.265018 
	C60.429245,24.206244 60.617912,24.432121 60.864899,24.888340 
z"/>
<path fill="#7BA5A5" opacity="1.000000" stroke="none" 
	d="
M59.870071,22.880762 
	C59.692371,22.894869 59.414917,22.708851 59.160908,22.265371 
	C59.413635,22.202570 59.608959,22.426813 59.870071,22.880762 
z"/>
<path fill="#75A6AC" opacity="1.000000" stroke="none" 
	d="
M91.492134,87.490814 
	C91.513084,87.482872 91.471184,87.498749 91.492134,87.490814 
z"/>
<path fill="#7AD3D6" opacity="1.000000" stroke="none" 
	d="
M167.376160,92.869614 
	C165.218155,92.611481 163.465851,92.339401 161.310074,92.111603 
	C159.302567,92.106354 157.667084,92.238724 156.101181,91.968330 
	C153.105255,91.451012 152.165451,89.940903 154.598602,87.125534 
	C156.055405,87.892059 157.242218,88.877586 158.765289,89.907448 
	C165.413971,89.951775 171.726395,89.951775 178.038818,89.951775 
	C178.053864,90.520248 178.068909,91.088722 178.083954,91.657188 
	C174.649918,92.056679 171.215897,92.456169 167.376160,92.869614 
z"/>
<path fill="#66A8A8" opacity="1.000000" stroke="none" 
	d="
M154.590134,56.938229 
	C161.500244,56.765221 168.864655,56.600914 176.572052,56.641876 
	C169.624832,56.880405 162.334641,56.913666 154.590134,56.938229 
z"/>
<path fill="#71A9AB" opacity="1.000000" stroke="none" 
	d="
M171.504700,59.529732 
	C171.478134,59.540749 171.531281,59.518719 171.504700,59.529732 
z"/>
<path fill="#56A5AB" opacity="1.000000" stroke="none" 
	d="
M253.311707,90.592186 
	C253.074692,80.622894 253.048416,70.308403 253.044525,59.534111 
	C253.381805,63.665112 253.910202,68.253700 253.957703,72.847260 
	C254.017670,78.645050 253.685455,84.446892 253.311707,90.592186 
z"/>
<path fill="#75A1AB" opacity="1.000000" stroke="none" 
	d="
M30.610245,75.234573 
	C30.615999,75.430298 30.489805,75.594589 30.363609,75.758881 
	C30.401838,75.573631 30.440067,75.388382 30.610245,75.234573 
z"/>
<path fill="#77A4A5" opacity="1.000000" stroke="none" 
	d="
M74.292236,49.086063 
	C72.535675,46.854477 70.910286,44.262764 69.244827,41.328232 
	C73.425133,41.893021 73.847931,45.360950 74.292236,49.086063 
z"/>
<path fill="#7BA5A5" opacity="1.000000" stroke="none" 
	d="
M66.991264,34.991302 
	C66.991264,34.991302 67.157661,34.740097 67.157661,34.740097 
	C67.157661,34.740097 67.151031,34.932781 67.075470,34.966347 
	C66.999916,34.999912 66.991264,34.991302 66.991264,34.991302 
z"/>
<path fill="#77A4A5" opacity="1.000000" stroke="none" 
	d="
M74.474182,50.310520 
	C74.381500,50.459660 74.385452,50.407211 74.371445,50.400383 
	C74.357437,50.393555 74.618980,49.995159 74.618980,49.995159 
	C74.618980,49.995159 74.566864,50.161381 74.474182,50.310520 
z"/>
<path fill="#7BA5A5" opacity="1.000000" stroke="none" 
	d="
M66.974152,35.833557 
	C66.666389,35.922073 66.377563,35.735962 66.016762,35.297050 
	C66.119133,35.030975 66.293480,35.017708 66.729546,34.997871 
	C66.991264,34.991302 66.999916,34.999912 67.004242,35.004257 
	C67.003403,35.192051 66.998245,35.375496 66.974152,35.833557 
z"/>
<path fill="#74A3A6" opacity="1.000000" stroke="none" 
	d="
M64.987831,61.228806 
	C65.677269,62.043835 66.321747,63.167103 66.995209,64.631012 
	C66.330414,63.826782 65.636642,62.681919 64.987831,61.228806 
z"/>
<path fill="#74A3A6" opacity="1.000000" stroke="none" 
	d="
M62.832932,56.996315 
	C63.220203,57.767719 63.607475,58.539127 64.029137,59.642731 
	C63.608433,59.982243 63.153347,59.989552 62.357529,59.997025 
	C62.008865,59.247341 62.000935,58.497498 62.203529,57.373184 
	C62.414051,56.998714 62.832932,56.996315 62.832932,56.996315 
z"/>
<path fill="#75A6AC" opacity="1.000000" stroke="none" 
	d="
M67.110397,65.174026 
	C67.359024,65.036118 67.609680,65.203300 67.753792,65.722961 
	C67.511543,65.789551 67.333275,65.590775 67.110397,65.174026 
z"/>
<path fill="#74A3A6" opacity="1.000000" stroke="none" 
	d="
M62.008636,55.230682 
	C62.306866,55.143852 62.592339,55.314499 62.643040,55.743385 
	C62.408268,56.001629 61.994736,56.003746 61.994736,56.003746 
	C61.995113,55.831886 61.995495,55.660023 62.008636,55.230682 
z"/>
<path fill="#76A8A9" opacity="1.000000" stroke="none" 
	d="
M61.994530,56.252209 
	C61.994736,56.003746 62.408268,56.001629 62.614777,56.002396 
	C62.863590,56.168201 62.905895,56.333241 62.890568,56.747295 
	C62.832932,56.996315 62.414051,56.998714 62.204342,56.998154 
	C61.994633,56.997597 61.994320,56.500671 61.994530,56.252209 
z"/>
<path fill="#7BB5B8" opacity="1.000000" stroke="none" 
	d="
M68.488068,53.485458 
	C68.516060,53.473000 68.460075,53.497921 68.488068,53.485458 
z"/>
<path fill="#76A3A4" opacity="1.000000" stroke="none" 
	d="
M69.226814,68.374939 
	C70.038788,68.130463 71.077057,68.060402 72.506439,67.977219 
	C71.749397,68.159187 70.601257,68.354271 69.226814,68.374939 
z"/>
</svg>