<?xml version="1.0" encoding="UTF-8"?>
<svg version="1.1" viewBox="0 0 1684 1012" width="421" height="253" xmlns="http://www.w3.org/2000/svg">
<path transform="translate(0)" d="m0 0h1684v1012h-1684z"/>
<path transform="translate(403,251)" d="m0 0 4 1 6 13 15 28 11 20 8 16 14 26 10 18 7 14 12 22 18 34 14 26 34 64 12 22 12 23 10 19 12 22 2 6-6 1h-78l-9-1-6-9-16-32-2-3h-124l-3-1 1-5 9-16 12-23 12-22 5-5h48l-2-5-8-16-13-25-12-22-14-27-12-22-12-23-10-18v-2h-3l-2 6-15 28-3 8 6 9 10 19 12 22 13 24-1 6-5 8-6 12-12 22-18 34-14 26-15 28-12 23-2 1h-93l1-5 6-9 15-28 11-20 7-14 12-22 12-23 12-22 15-29 6-10 7-14 10-19 30-56 10-19 12-22 13-25 12-22z" fill="#53F4FA"/>
<path transform="translate(403,270)" d="m0 0h2l18 34 17 32 12 22 14 27 12 22 18 34 12 22 18 34 15 28 12 22 17 33v2h-30l-5-8-8-15-9-19-9-1h-117l2-6 8-14 1-1h103l-5-10-12-21-13-25-13-23-8-15-8-16-12-22-18-34-8-15-2-5-3 1-16 32-3 4-10-17-6-11-1-5 18-34 10-18z"/>
<path transform="translate(335,398)" d="m0 0 3 4 8 15 6 12-1 5-15 29-12 22-12 23-9 16-12 22-1 3 7-1h31l-2 5-6 12-12 22-14 26-2 2-7 1h-64l-1-3 18-34 15-28 12-22 15-29 12-22 17-32 16-30z"/>
<path transform="translate(1100,456)" d="m0 0 7 1 10 17 15 24 13 21 17 28 13 21 9 15 1-126 5-1h12l1 1v147h-27l-6-9-15-25-15-24-13-21-12-20-8-13-9-14v126h-19v-147z" fill="#53F4FA"/>
<path transform="translate(942,456)" d="m0 0h35l69 1v15h-87v49l64-1 2 1v14l-1 1h-65v52h86l1 1v14l-1 1h-104v-147z" fill="#53F4FA"/>
<path transform="translate(796,456)" d="m0 0 111 1v13l-5 9-10 13-13 17-11 14-16 21-14 19-8 10-10 13-1 1 38 1h49l1 1v14l-1 1h-110l-1-1v-14l6-9 10-13 13-17 14-18 13-17 10-13 13-17 9-12-87-1-1-1v-14z" fill="#53F4FA"/>
<path transform="translate(688,452)" d="m0 0 17 1 16 5 11 6 13 10 3 4-1 4-7 6-4 1-8-6-10-7-13-5-10-2h-10l-16 4-10 5-10 8-8 10-5 11-3 12-1 13 2 15 4 11 6 11 9 10 12 7 16 5h18l15-4 9-5 9-7 7-10 2-4h20l-1 4-6 10-11 13-11 9-14 7-16 4h-24l-13-3-16-8-9-7-5-4-9-12-8-17-4-16v-23l4-15 8-16 8-10 8-8 14-9 12-5 9-2z" fill="#53F4FA"/>
<path transform="translate(387,548)" d="m0 0h77l48 1 6 10 13 26 3 5 41 1 4 5 9 17v2h-72l-5-8-15-29-2-5-2-1-117-1 9-19z"/>
<path transform="translate(405,351)" d="m0 0 4 4 12 22 7 14 12 22 16 31 12 22 14 27 8 15v2h-21l-10-1-12-22-15-29-12-22-12-23-10-19-8-14 2-5 12-23z"/>
<path transform="translate(357,441)" d="m0 0 4 4 8 15 2 5-1 6-14 27-13 23-9 16-2 2h-27l2-6 12-22 16-30 13-23z"/>
</svg>
